<svg width="35" height="35" viewBox="0 0 88 88" fill="none" xmlns="http://www.w3.org/2000/svg">
<path d="M17.5197 64.5859L18.5315 18.0434C18.5433 17.4994 18.9879 17.0647 19.532 17.0651L66.5529 17.1017C67.4282 17.1024 67.8803 18.1478 67.2813 18.7861L56.481 30.2932C56.2593 30.5295 55.9367 30.6437 55.6157 30.5995L39.3191 28.3586C38.3204 28.2213 37.769 29.4805 38.5472 30.1213L76.0403 60.9917C76.5246 61.3905 76.5264 62.1316 76.044 62.5327L63.2826 73.1419C62.8455 73.5053 62.2034 73.4451 61.8532 72.9973C57.5316 67.4704 41.4906 47.6828 31.9855 35.9885C31.3571 35.2154 30.1129 35.7419 30.2204 36.7324L32.1725 54.7143C32.21 55.0601 32.0651 55.4006 31.7899 55.6134L19.131 65.3988C18.4658 65.913 17.5014 65.4265 17.5197 64.5859Z" fill="black"/>
</svg>
