<svg class="Gum_Gum__1ZVAj" xmlns="http://www.w3.org/2000/svg" width="500" height="501" viewBox="0 0 500 501" fill="none" style="transform: scale(1.3); transform-origin: 50% 50% 0px;" opacity="1" transform-origin="50% 50%"><g><path d="M490 259C490 126.452 382.548 19 250 19C117.452 19 10 126.452 10 259C10 391.548 117.452 499 250 499C382.548 499 490 391.548 490 259Z" fill="url(#paint0_radial)"></path><g filter="url(#filter0_f)"><path d="M463.75 244.416C463.75 129.817 368.051 36.916 250 36.916C131.949 36.916 36.25 129.817 36.25 244.416C36.25 359.015 131.949 451.916 250 451.916C368.051 451.916 463.75 359.015 463.75 244.416Z" fill="url(#paint1_linear)"></path></g><g filter="url(#filter1_f)"><path d="M139.749 118.063L124.411 99.5963C122.832 97.6961 122.863 94.9116 124.651 93.2068C136.214 82.181 153.361 75.2659 163.831 72.2248C166.292 71.5099 168.819 72.9293 169.64 75.3569L176.261 94.9233C176.991 97.0793 176.172 99.4559 174.27 100.705L146.34 119.047C144.212 120.445 141.375 120.021 139.749 118.063Z" fill="white"></path></g><g filter="url(#filter2_f)"><path d="M132.586 133.336L111.4 110.332C109.793 108.587 107.173 108.211 105.315 109.687C96.365 116.802 79.8717 135.239 65.5805 168.66C50.3918 204.18 49.7344 259.513 51.544 287.758C51.7406 290.826 54.683 292.908 57.6654 292.16L75.3931 287.718C77.6177 287.161 79.1708 285.169 79.1265 282.876L79.1196 282.519C78.8711 269.717 78.4092 245.926 90.509 209.544C100.366 179.907 120.891 153.005 132.526 140.33C134.338 138.356 134.401 135.307 132.586 133.336Z" fill="url(#paint2_linear)"></path></g><path d="M140.896 113.902L129 99.5983C127.419 97.6971 127.449 94.9062 129.265 93.228C138.659 84.5472 152.151 78.9986 160.79 76.4093C163.243 75.6739 165.763 77.0933 166.585 79.5193L171.675 94.5406C172.406 96.698 171.587 99.0769 169.682 100.326L147.482 114.886C145.356 116.28 142.522 115.857 140.896 113.902Z" fill="white"></path><path d="M122.999 137.307L105.815 118.661C104.208 116.917 101.598 116.54 99.7619 118.041C92.033 124.359 78.2781 140.011 66.3283 167.937C53.5251 197.858 52.8274 244.272 54.3026 268.594C54.4888 271.663 57.4297 273.74 60.4118 272.994L74.1405 269.556C76.3655 268.999 77.9155 267.006 77.8711 264.712C77.6586 253.738 77.3556 233.539 87.5909 202.785C95.8668 177.918 112.96 155.311 122.958 144.305C124.761 142.321 124.816 139.278 122.999 137.307Z" fill="url(#paint3_linear)"></path><mask id="mask0" mask-type="alpha" maskUnits="userSpaceOnUse" x="10" y="19" width="480" height="480"><path d="M490 259C490 126.452 382.548 19 250 19C117.452 19 10 126.452 10 259C10 391.548 117.452 499 250 499C382.548 499 490 391.548 490 259Z" fill="url(#paint4_radial)"></path></mask><g mask="url(#mask0)"><g opacity="0.67" filter="url(#filter3_f)"><path d="M490 259C490 391.548 382.548 499 250 499C180.032 499 117.057 469.059 73.189 421.292C385.407 468.958 429.348 215.084 412.292 82.1891C428.556 97.126 442.754 114.278 454.406 133.167C476.977 169.753 490 212.856 490 259Z" fill="url(#paint5_linear)"></path></g></g><path fill-rule="evenodd" clip-rule="evenodd" d="M491.667 258.999C491.667 125.531 383.469 17.3327 250 17.3327C116.531 17.3327 8.3335 125.531 8.3335 258.999C8.3335 392.468 116.531 500.666 250 500.666C383.469 500.666 491.667 392.468 491.667 258.999ZM250 18.9994C382.548 18.9994 490 126.451 490 258.999C490 391.548 382.548 498.999 250 498.999C117.452 498.999 10.0002 391.548 10.0002 258.999C10.0002 126.451 117.452 18.9994 250 18.9994Z" fill="black"></path></g><defs><filter id="filter0_f" x="0.25" y="0.916016" width="499.5" height="487" filterUnits="userSpaceOnUse" color-interpolation-filters="sRGB"><feFlood flood-opacity="0" result="BackgroundImageFix"></feFlood><feBlend mode="normal" in="SourceGraphic" in2="BackgroundImageFix" result="shape"></feBlend><feGaussianBlur stdDeviation="18" result="effect1_foregroundBlur"></feGaussianBlur></filter><filter id="filter1_f" x="81.2666" y="30.0391" width="137.259" height="131.829" filterUnits="userSpaceOnUse" color-interpolation-filters="sRGB"><feFlood flood-opacity="0" result="BackgroundImageFix"></feFlood><feBlend mode="normal" in="SourceGraphic" in2="BackgroundImageFix" result="shape"></feBlend><feGaussianBlur stdDeviation="21" result="effect1_foregroundBlur"></feGaussianBlur></filter><filter id="filter2_f" x="8.8335" y="66.7715" width="167.083" height="267.542" filterUnits="userSpaceOnUse" color-interpolation-filters="sRGB"><feFlood flood-opacity="0" result="BackgroundImageFix"></feFlood><feBlend mode="normal" in="SourceGraphic" in2="BackgroundImageFix" result="shape"></feBlend><feGaussianBlur stdDeviation="21" result="effect1_foregroundBlur"></feGaussianBlur></filter><filter id="filter3_f" x="45.189" y="54.1895" width="472.811" height="472.811" filterUnits="userSpaceOnUse" color-interpolation-filters="sRGB"><feFlood flood-opacity="0" result="BackgroundImageFix"></feFlood><feBlend mode="normal" in="SourceGraphic" in2="BackgroundImageFix" result="shape"></feBlend><feGaussianBlur stdDeviation="14" result="effect1_foregroundBlur"></feGaussianBlur></filter><radialGradient id="paint0_radial" cx="0" cy="0" r="1" gradientUnits="userSpaceOnUse" gradientTransform="translate(147.917 140.042) rotate(53.0241) scale(270.167)"><stop stop-color="#FFD3E9"></stop><stop offset="1" stop-color="#FA93B5"></stop></radialGradient><linearGradient id="paint1_linear" x1="203.958" y1="36.916" x2="275" y2="216.499" gradientUnits="userSpaceOnUse"><stop stop-color="#FFD3E9" stop-opacity="0.57"></stop><stop offset="1" stop-color="#FFD3E9" stop-opacity="0"></stop></linearGradient><linearGradient id="paint2_linear" x1="115" y1="126.917" x2="65.8335" y2="265.042" gradientUnits="userSpaceOnUse"><stop stop-color="white"></stop><stop offset="1" stop-color="white" stop-opacity="0"></stop></linearGradient><linearGradient id="paint3_linear" x1="112.708" y1="123.999" x2="70.4167" y2="268.374" gradientUnits="userSpaceOnUse"><stop stop-color="white"></stop><stop offset="1" stop-color="white" stop-opacity="0"></stop></linearGradient><radialGradient id="paint4_radial" cx="0" cy="0" r="1" gradientUnits="userSpaceOnUse" gradientTransform="translate(147.917 140.042) rotate(53.0241) scale(270.167)"><stop stop-color="#FFD3E9"></stop><stop offset="1" stop-color="#FFD3E9"></stop></radialGradient><linearGradient id="paint5_linear" x1="443.125" y1="409.417" x2="206.458" y2="248.375" gradientUnits="userSpaceOnUse"><stop stop-color="#FDBFD9"></stop><stop offset="1" stop-color="#FDBFD9" stop-opacity="0"></stop></linearGradient></defs></svg>