<svg xmlns="http://www.w3.org/2000/svg" width="100%" height="100%" style="background-color: rgb(218, 136, 251); position: fixed; z-index: 0; top: 0px; left: 0px;" viewBox="0 0 1366 653" fill="none"><g xmlns="http://www.w3.org/2000/svg" style="mix-blend-mode: overlay; transform: translate3d(5vw, 85vh, 0px);" opacity="0.3"><g style="mix-blend-mode: overlay;"><path d="M79 49C79 53.898 81.9102 61.6572 88.8978 66.1205" stroke="white" stroke-width="5" stroke-linecap="round" stroke-linejoin="round"></path></g><g style="mix-blend-mode: overlay;"><path d="M177 35C180.164 33.3682 182 29 182 29" stroke="white" stroke-width="4" stroke-linecap="round" stroke-linejoin="round"></path></g><path d="M2 2C28.5 2 46 5.5 59 31C72 56.5 73.5 80 94.5 80C115.5 80 125 61.5 130 44C135 26.5 154 27.5 163.5 39.5C173 51.5 184 41.5 188.5 34.5C193 27.5 199 18.5 218 22.5C233.2 25.7 244 12.5 247.5 5.5" stroke="black" stroke-width="4" stroke-linecap="round"></path></g><g xmlns="http://www.w3.org/2000/svg" style="mix-blend-mode: overlay; transform: translate3d(30vw, 15vh, 0px);" opacity="0.3"><g style="mix-blend-mode: overlay;"><path d="M18 20.5C20.5 25.5 24.5 26.5 24.5 26.5" stroke="white" stroke-width="5" stroke-linecap="round" stroke-linejoin="round"></path></g><path d="M2.5 13.0001C12.5 33.5001 32 54.0001 48.5 24.0001C65 -5.99994 70.5 1.00006 78 10.0001C85.5 19.0001 98.5 30 110 5.5" stroke="black" stroke-width="4" stroke-linecap="round"></path></g><g xmlns="http://www.w3.org/2000/svg" style="mix-blend-mode: overlay; transform: translate3d(80vw, 25vh, 0px);" opacity="0.3"><path d="M2 14C26 17.5 28.5 18 40 51.5C51.5 85 71 64.5 76.5 51.5C82 38.5 90.5 25 96.5 40C102.5 55 105.5 56 112 53C118.5 50 122.5 68 132 74C141.5 80 149 72 155 56C161 40 158.5 7 182 2" stroke="black" stroke-width="4" stroke-linecap="round"></path><g style="mix-blend-mode: overlay;"><path d="M139.492 59.7012C143.189 56.4883 147.137 49.202 145.922 41" stroke="white" stroke-width="5" stroke-linecap="round" stroke-linejoin="round"></path></g><g style="mix-blend-mode: overlay;"><path d="M50.0039 51C50.6891 56.548 54.1249 58.8273 54.1249 58.8273" stroke="white" stroke-width="5" stroke-linecap="round" stroke-linejoin="round"></path></g></g><g xmlns="http://www.w3.org/2000/svg" style="mix-blend-mode: overlay; transform: translate3d(5vw, 40vh, 0px);" opacity="0.3"><path d="M2.5 2C17 2 22 17.5 26.5 28C31 38.5 50.5 44.5 57 32C63.5 19.5 66 7 78.5 5.5" stroke="black" stroke-width="4" stroke-linecap="round"></path><g style="mix-blend-mode: overlay;"><path d="M47 29C52.0625 26.2804 55 19 55 19" stroke="white" stroke-width="4" stroke-linecap="round" stroke-linejoin="round"></path></g></g><g xmlns="http://www.w3.org/2000/svg" style="mix-blend-mode: overlay; transform: translate3d(25vw, 60vh, 0px);" opacity="0.3"><path d="M2 2C5.5 16 12 32 22.5 20.5C33 9 38 21 40.5 27.5C43 34 59.5 55.5 72.5 30.5C82.9 10.5 89.8333 6.16667 92 6.5" stroke="black" stroke-width="4" stroke-linecap="round"></path><g style="mix-blend-mode: overlay;"><path d="M59 32C64.0625 29.2804 67 22 67 22" stroke="white" stroke-width="4" stroke-linecap="round" stroke-linejoin="round"></path></g></g><g xmlns="http://www.w3.org/2000/svg" style="mix-blend-mode: overlay; transform: translate3d(85vw, 80vh, 0px);" opacity="0.3"><path d="M2.5 7.5C9.5 13.5 9 26 16.5 27.5C24 29 24.5 19.5 31 22.5C37.5 25.5 40.0154 34.0308 46.5 47C54 62 73.5 62.5 80.5 45.5C87.5 28.5 87 5.5 109.5 2" stroke="black" stroke-width="4" stroke-linecap="round"></path><g style="mix-blend-mode: overlay;"><path d="M68.093 44.4523C72.4742 40.7333 73.8228 32.9994 73.8228 32.9994" stroke="white" stroke-width="4" stroke-linecap="round" stroke-linejoin="round"></path></g></g></svg>