<svg width="128" height="100" viewBox="0 0 128 100" fill="none" xmlns="http://www.w3.org/2000/svg">
<path d="M8.28978 38.6C7.24711 38.6153 6.20444 38.761 5.16178 39.037C2.83111 39.6503 1.59678 41.2373 1.45878 43.798C1.39744 44.856 1.36678 45.9293 1.36678 47.018C1.36678 49.962 1.58144 52.9827 2.01078 56.08C2.34811 58.4873 3.30644 60.0973 4.88578 60.91C5.45311 61.2013 6.29644 61.4313 7.41578 61.6C7.95244 61.6767 8.50444 61.715 9.07178 61.715C10.5744 61.715 12.1691 61.4313 13.8558 60.864C15.3278 60.3733 16.2631 59.438 16.6618 58.058C16.8151 57.5213 16.8841 56.701 16.8688 55.597C16.8228 53.389 15.9564 51.779 14.2698 50.767C13.4878 50.307 11.8318 49.8777 9.30178 49.479C12.0924 49.1723 13.9171 48.3673 14.7758 47.064C15.4811 45.9907 15.8338 44.8943 15.8338 43.775C15.8338 43.5603 15.8108 43.2997 15.7648 42.993C15.4121 40.6317 13.9554 39.244 11.3948 38.83C10.3674 38.6613 9.33244 38.5847 8.28978 38.6ZM5.32278 44.12C5.27678 42.7553 6.05878 42.05 7.66878 42.004C9.30944 41.958 10.1834 42.51 10.2908 43.66C10.4134 44.8253 9.61611 45.5383 7.89878 45.799C7.60744 45.845 7.36978 45.868 7.18578 45.868C5.98978 45.868 5.36878 45.2853 5.32278 44.12ZM6.95578 53.573C7.43111 53.3737 7.89878 53.274 8.35878 53.274C8.72678 53.274 9.09478 53.3277 9.46278 53.435C10.8581 53.849 11.5558 54.5313 11.5558 55.482C11.5558 55.6967 11.5174 55.9267 11.4408 56.172C11.1648 57.0613 10.3598 57.506 9.02578 57.506C8.47378 57.506 7.89878 57.4063 7.30078 57.207C6.28878 56.8697 5.75978 56.2717 5.71378 55.413C5.66778 54.5543 6.08178 53.941 6.95578 53.573ZM21.1254 38.6C21.0794 38.6 20.9567 38.623 20.7574 38.669C20.2821 38.6997 19.8911 38.853 19.5844 39.129C18.8944 39.6197 18.5801 40.739 18.6414 42.487C18.6567 42.901 18.6797 43.614 18.7104 44.626C18.7257 45.0707 18.7564 46.282 18.8024 48.26C18.8331 49.364 18.9404 50.7977 19.1244 52.561C19.1704 53.1437 19.2701 54.2017 19.4234 55.735C19.4541 56.0417 19.5077 56.5707 19.5844 57.322C19.6304 57.828 19.7914 58.3647 20.0674 58.932C20.3741 59.5453 20.7191 59.99 21.1024 60.266C21.7311 60.7107 22.8504 61.0863 24.4604 61.393C25.1657 61.531 25.8097 61.6 26.3924 61.6C27.7724 61.6 29.3517 61.5003 31.1304 61.301C32.2344 61.1783 32.9244 61.0557 33.2004 60.933C33.9977 60.5803 34.3964 59.645 34.3964 58.127C34.3964 57.3757 33.9901 56.8543 33.1774 56.563C32.5794 56.333 31.8587 56.2563 31.0154 56.333C30.3101 56.3943 29.5434 56.425 28.7154 56.425C28.3321 56.471 27.7571 56.5477 26.9904 56.655C25.7791 56.655 24.8514 56.3867 24.2074 55.85C23.7474 55.4667 23.5711 54.0483 23.6784 51.595C23.6937 51.227 23.7167 50.6213 23.7474 49.778C23.7934 48.6433 23.9467 47.3707 24.2074 45.96C24.2841 45.3927 24.4221 44.3883 24.6214 42.947C24.6981 42.4257 24.6827 41.8353 24.5754 41.176C24.4681 40.5167 24.2841 39.9723 24.0234 39.543C23.4867 38.6537 22.5207 38.3393 21.1254 38.6ZM37.4306 42.51C36.8479 44.5647 36.5643 46.305 36.5796 47.731C36.5796 48.8963 36.5873 50.0617 36.6026 51.227C36.6333 52.745 36.7483 53.8873 36.9476 54.654L37.6836 57.529C37.6836 58.0657 38.0286 58.702 38.7186 59.438C39.3473 60.0973 39.9529 60.5343 40.5356 60.749C41.3789 61.071 42.0766 61.2857 42.6286 61.393C42.9353 61.4543 43.6406 61.5233 44.7446 61.6C44.9746 61.6153 45.2046 61.623 45.4346 61.623C46.4773 61.623 47.4893 61.4543 48.4706 61.117C49.8966 60.6263 50.8243 59.8673 51.2536 58.84C51.6216 57.966 51.8286 57.368 51.8746 57.046C52.3499 53.6267 52.5799 51.0967 52.5646 49.456C52.5646 48.7967 52.5109 47.9917 52.4036 47.041C52.2809 45.9523 52.2043 45.1703 52.1736 44.695C52.0969 43.6983 51.8363 42.6633 51.3916 41.59C51.1616 41.0227 50.7323 40.4783 50.1036 39.957C49.4749 39.4357 48.8616 39.0907 48.2636 38.922C47.7729 38.784 47.0216 38.6767 46.0096 38.6C45.4729 38.554 44.9593 38.531 44.4686 38.531C40.5279 38.531 38.1819 39.8573 37.4306 42.51ZM45.8486 43.407C46.7073 43.6523 47.3359 44.534 47.7346 46.052C48.0106 47.0947 48.1486 48.2447 48.1486 49.502C48.1486 50.2993 48.1026 51.1733 48.0106 52.124C47.7499 54.8227 47.2593 56.4327 46.5386 56.954C46.0326 57.322 45.3963 57.506 44.6296 57.506C44.2923 57.506 43.9549 57.4753 43.6176 57.414C42.3909 57.184 41.6089 55.988 41.2716 53.826C41.0876 52.63 40.9956 51.4723 40.9956 50.353C40.9956 49.341 41.0646 48.283 41.2026 47.179C41.4786 44.9097 42.1226 43.6523 43.1346 43.407C44.0853 43.1617 44.9899 43.1617 45.8486 43.407ZM68.4745 43.499C68.3518 42.7323 68.2062 42.1267 68.0375 41.682C67.7462 40.9307 67.4472 40.4017 67.1405 40.095C66.7418 39.681 66.1898 39.4663 65.4845 39.451C64.0892 39.4203 63.1385 40.739 62.6325 43.407C62.3258 45.0323 62.0728 47.0793 61.8735 49.548C61.7662 50.9587 61.4825 52.7143 61.0225 54.815C61.0225 54.9683 60.9995 55.045 60.9535 55.045C60.8922 55.045 60.8615 54.8457 60.8615 54.447C60.8308 54.2017 60.7158 53.2817 60.5165 51.687C60.4552 51.1657 60.3325 49.3793 60.1485 46.328C60.0258 44.258 59.8572 42.7553 59.6425 41.82C59.1672 39.7193 58.3545 38.669 57.2045 38.669C56.8825 38.669 56.5375 38.7687 56.1695 38.968C55.4642 39.3513 55.0808 40.0567 55.0195 41.084C54.9582 42.0193 55.0502 43.752 55.2955 46.282C55.5868 49.2567 55.8398 51.411 56.0545 52.745C56.2078 53.665 56.4072 54.7997 56.6525 56.149C56.9285 57.437 57.2582 58.5487 57.6415 59.484C57.8562 60.0207 58.3162 60.5267 59.0215 61.002C59.4508 61.2933 59.9108 61.439 60.4015 61.439C60.7082 61.439 61.0148 61.3853 61.3215 61.278C62.1188 61.002 62.6632 60.6647 62.9545 60.266C63.5065 59.53 63.9358 57.7897 64.2425 55.045C64.4265 53.4043 64.5798 52.262 64.7025 51.618C64.8558 50.8207 65.0782 48.858 65.3695 45.73C65.5842 47.892 65.7605 49.5097 65.8985 50.583C66.1285 52.4997 66.3815 54.1097 66.6575 55.413C67.2555 58.2497 68.0145 60.036 68.9345 60.772C69.5325 61.2473 69.9848 61.5233 70.2915 61.6C70.6135 61.692 71.0658 61.669 71.6485 61.531C73.0285 61.2243 74.1785 58.909 75.0985 54.585C75.9265 50.6443 76.4785 46.65 76.7545 42.602C76.8312 41.5133 76.6702 40.6087 76.2715 39.888C75.7962 39.014 75.0448 38.577 74.0175 38.577C72.8522 38.577 72.0318 39.6963 71.5565 41.935C71.4032 42.7323 71.2498 44.3193 71.0965 46.696L70.7285 52.354C70.6058 53.9793 70.5062 54.999 70.4295 55.413C70.4142 55.551 70.3835 55.62 70.3375 55.62C70.2302 55.62 70.1305 55.16 70.0385 54.24C70.0078 53.9027 69.9542 53.3967 69.8775 52.722C69.8315 52.63 69.7625 52.1317 69.6705 51.227C69.6552 51.0737 69.4788 49.9467 69.1415 47.846C69.0188 47.0487 68.7965 45.5997 68.4745 43.499ZM105.61 55.436C105.442 58.61 103.732 60.496 100.481 61.094C99.316 61.3087 98.2733 61.416 97.3533 61.416C95.4673 61.416 93.7117 60.8717 92.0863 59.783C90.7983 58.9243 90.001 57.7283 89.6943 56.195C89.5563 55.505 89.3647 53.9027 89.1193 51.388L88.5213 45.27C88.4447 44.488 88.4063 43.752 88.4063 43.062C88.4063 41.8353 88.5443 40.9307 88.8203 40.348C89.2497 39.4587 89.9703 39.0293 90.9823 39.06C92.117 39.106 92.876 39.52 93.2593 40.302C93.4893 40.762 93.6427 41.682 93.7193 43.062C93.7807 43.9973 93.7807 45.454 93.7193 47.432C93.6733 49.3487 93.6887 50.8053 93.7653 51.802C93.888 53.458 94.0873 54.539 94.3633 55.045C94.9 56.0263 95.981 56.586 97.6063 56.724C98.2657 56.7853 98.902 56.5783 99.5153 56.103C100.144 55.6123 100.535 54.263 100.688 52.055C100.734 51.0277 100.803 49.4867 100.895 47.432C100.957 46.144 100.934 44.4727 100.826 42.418C100.719 40.394 101.386 39.29 102.827 39.106C103.057 39.0753 103.264 39.06 103.448 39.06C104.476 39.06 105.25 39.4663 105.771 40.279C106.216 40.969 106.438 41.8507 106.438 42.924C106.438 43.3533 106.408 43.7597 106.346 44.143C106.101 45.6917 105.932 47.57 105.84 49.778L105.61 55.436ZM126.725 44.258C126.801 43.2153 126.594 42.3183 126.104 41.567C125.69 40.923 125 40.3097 124.034 39.727C122.776 38.9757 121.097 38.6 118.997 38.6C116.804 38.6 115.24 38.7227 114.305 38.968C111.928 39.5813 110.479 40.877 109.958 42.855C109.651 44.0203 109.498 45.1473 109.498 46.236V50.974C109.528 52.5227 109.628 54.102 109.797 55.712C109.827 56.2487 109.889 57.046 109.981 58.104C110.165 60.22 110.786 61.3853 111.844 61.6C112.365 61.7073 112.902 61.6077 113.454 61.301C114.021 60.9943 114.358 60.5803 114.466 60.059C114.588 59.645 114.627 59.093 114.581 58.403C114.535 57.8203 114.435 57.207 114.282 56.563C114.098 55.8117 113.944 53.7033 113.822 50.238C115.094 50.4527 116.336 50.56 117.548 50.56C118.222 50.56 118.882 50.5293 119.526 50.468C120.952 50.33 121.856 50.2227 122.24 50.146C124.141 49.7473 125.437 48.651 126.127 46.857C126.464 45.9677 126.663 45.1013 126.725 44.258ZM119.181 46.512C119.135 46.558 119.05 46.6193 118.928 46.696L118.468 46.903C118.192 47.0257 117.555 47.0717 116.559 47.041C114.734 46.9797 113.799 46.3817 113.753 45.247C113.676 43.545 114.496 42.556 116.214 42.28C116.49 42.234 116.804 42.211 117.157 42.211C118.383 42.211 119.303 42.6787 119.917 43.614C120.193 44.028 120.331 44.4267 120.331 44.81C120.331 45.454 119.947 46.0213 119.181 46.512Z" fill="black"/>
<path d="M24.0041 33C24.0041 27.195 24.0041 21.3899 24.0041 15.5849C24.0041 14.4046 24.0041 13.2243 24.0041 12.0441C24.0041 11.6546 23.9436 11.547 24.2868 11.7717C30.809 16.0427 37.6919 19.8359 44.249 24.0696C45.8601 25.1098 47.4343 26.199 49.0452 27.239C49.1995 27.3386 49.4978 27.6002 49.5663 27.4371C49.7065 27.1037 49.6017 26.3346 49.6017 26.0422C49.6017 24.5859 49.6309 23.1246 49.8137 21.676C50.3063 17.7707 51.2771 13.0525 53.9828 9.87338C55.503 8.08713 56.5895 12.6735 56.7739 13.3069C57.6922 16.4601 58.0492 19.7164 58.4168 22.9554C58.5189 23.8544 58.8768 23.2074 59.3531 22.6335C61.2852 20.3055 63.1798 18.0011 65.3153 15.8242C69.9299 11.1202 75.0123 6.24526 80.9317 2.96511C80.9952 2.92993 83.3348 1.32643 83.5904 2.32958C83.9372 3.69055 82.754 5.83097 82.2213 6.95986C80.7931 9.98652 78.5514 12.8781 77.5488 16.0636C77.355 16.6792 77.783 16.586 78.3791 16.4433C80.3327 15.9756 82.2254 15.2156 84.1204 14.5862C89.4178 12.8266 94.8728 11.1386 100.47 10.4594C101.096 10.3834 102.646 10.0166 102.917 10.9629C103.299 12.3006 102.272 14.1659 101.742 15.3043C99.9605 19.1311 98.0251 22.8308 96.504 26.7603" stroke="black" stroke-width="2" stroke-linecap="round" stroke-linejoin="round"/>
<path d="M27.4477 71C26.2983 74.1714 24.1981 76.9231 22.0909 79.6929C20.7461 81.4605 18.7861 83.4165 18.0158 85.4556C17.8733 85.8328 18.7301 84.9449 19.1159 84.723C21.0965 83.5839 23.2281 82.6195 25.3433 81.6789C30.1269 79.5517 34.965 77.4085 39.8642 75.4767C41.0029 75.0277 42.2073 74.5839 43.4706 74.4755C45.117 74.3343 45.7282 75.2197 46.3499 76.4371C48.588 80.8201 49.6258 85.7146 50.7693 90.3718C51.1074 91.7489 51.4226 93.1302 51.7641 94.5066C51.8066 94.6778 52.024 95.1329 52.0703 94.9624C52.8729 92.0029 53.2077 88.9562 54.06 85.9928C54.5274 84.3675 55.0635 81.5227 57.2549 80.8161C58.6654 80.3613 60.132 80.9283 61.3587 81.4754C65.1744 83.1773 68.7374 85.3837 72.2351 87.5067C74.7653 89.0425 77.1896 90.6725 79.6199 92.3171C80.2609 92.7509 82.3858 94.5614 83.4463 94.3927C84.8974 94.1617 80.6383 85.1816 80.213 84.2021C79.8419 83.3475 79.0541 82.1467 78.9886 81.1987C78.9481 80.6131 80.4209 81.1242 80.5574 81.158C85.1558 82.2945 89.5432 83.7906 94.3705 84.1858C96.0238 84.3212 98.0968 84.4722 99.0769 83.0545C100.058 81.6353 100.008 79.6605 99.9952 78.0813C99.9795 76.2138 99.5822 74.4174 99.0769 72.6116" stroke="black" stroke-width="2" stroke-linecap="round" stroke-linejoin="round"/>
</svg>
