<svg width="40" height="50" viewBox="0 0 147 155" fill="none" xmlns="http://www.w3.org/2000/svg">
<path d="M54.4349 82.0264C62.051 93.6139 59.1496 102.305 52.6216 100.494C46.0935 98.6835 42.8295 97.1316 35.5761 93.6139C28.3227 90.0962 18.8932 83.4748 7.65058 89.2686C-2.80691 94.6577 2.93641 105.201 11.2778 110.271C19.6191 115.341 39.4103 129.825 50.8082 136.343C59.0689 141.067 75.4698 153 92.5154 153C116.98 153 133.708 138.912 139.508 127.652C145.307 116.393 148.212 98.2875 139.508 66.7839C132.544 41.581 118.203 43.0053 111.903 46.8678C101.747 35.5486 90.2635 39.2104 84.7443 43.5974C75.7769 37.955 67.5151 42.3489 63.3973 46.8678C63.3973 46.8678 44.1252 17.899 35.0583 6.31145C25.9914 -5.27608 5.3192 8.48411 15.8367 24.0548C26.3541 39.6256 46.8188 70.4389 54.4349 82.0264Z" fill="#FAD3B6"/>
<path d="M78.5789 68.5944L63.3973 46.8678M63.3973 46.8678C63.3973 46.8678 44.1252 17.899 35.0583 6.31145C25.9914 -5.27609 5.3192 8.48411 15.8367 24.0548C26.3541 39.6256 46.8188 70.4388 54.4349 82.0264C62.051 93.6139 59.1496 102.305 52.6216 100.494C46.0935 98.6835 42.8295 97.1316 35.5761 93.6139C28.3227 90.0962 18.8932 83.4748 7.65058 89.2686C-2.80691 94.6577 2.93641 105.201 11.2778 110.271C19.6191 115.341 39.4103 129.825 50.8082 136.343C59.0689 141.067 75.4698 153 92.5154 153C116.98 153 133.708 138.912 139.508 127.652C145.307 116.393 148.212 98.2875 139.508 66.7839C132.544 41.581 118.203 43.0053 111.903 46.8678M63.3973 46.8678C67.5151 42.3489 75.7769 37.955 84.7443 43.5974M98.8884 62.0764C94.3081 52.234 89.4299 46.5456 84.7443 43.5974M84.7443 43.5974C90.2635 39.2104 101.747 35.5486 111.903 46.8678M120.286 60.9901C117.727 54.7652 114.872 50.1765 111.903 46.8678" stroke="black" stroke-width="3"/>
</svg>
