<svg width="20" height="20" viewBox="0 0 20 20" fill="none" xmlns="http://www.w3.org/2000/svg">
<path fill-rule="evenodd" clip-rule="evenodd" d="M18.3635 18.3335H14.9035V12.9202C14.9035 11.6285 14.8818 9.96852 13.106 9.96852C11.306 9.96852 11.031 11.3752 11.031 12.8268V18.3335H7.57435V7.20018H10.891V8.72268H10.9394C11.4002 7.84768 12.5293 6.92435 14.2127 6.92435C17.716 6.92435 18.3627 9.22935 18.3627 12.2277V18.3335H18.3635ZM3.67352 5.68018C3.40983 5.6804 3.14868 5.62863 2.90502 5.52782C2.66136 5.42701 2.43997 5.27915 2.25351 5.09269C2.06705 4.90623 1.91919 4.68484 1.81838 4.44118C1.71757 4.19752 1.6658 3.93637 1.66602 3.67268C1.66602 3.27587 1.78366 2.88797 2.00409 2.55801C2.22451 2.22805 2.53781 1.97085 2.90438 1.81892C3.27095 1.667 3.67434 1.62716 4.06355 1.70445C4.45276 1.78175 4.81032 1.9727 5.09102 2.25317C5.37173 2.53364 5.56297 2.89104 5.64059 3.28018C5.7182 3.66933 5.6787 4.07275 5.52708 4.43945C5.37545 4.80615 5.11851 5.11966 4.78874 5.34035C4.45896 5.56105 4.07116 5.67902 3.67435 5.67935L3.67352 5.68018ZM5.40435 18.3335H1.94102V7.20018H5.40435V18.3335Z" fill="white"/>
</svg>
