<svg xmlns="http://www.w3.org/2000/svg" width="100%" height="100%" viewBox="0 0 730 737" class="Character_CharacterSvg__3Cjou" role="img" fill="none" aria-labelledby="title-main-char desc-main-char" style="transform-origin: 50% 2.50029px 0px; transform: translateY(0%) scaleX(1) scaleY(1);" transform-origin="50% 2.5002923011779785px"><title id="title-main-char">A cartoon looking guy</title><desc id="desc-main-char">He's chewing a gum and blowing a bubble</desc><g clip-path="url(#clip0)"><path id="neck-shadow" xmlns="http://www.w3.org/2000/svg" d="M428.649 376.273H310.149L299.628 440.501C315.57 455.701 404.542 480.501 447.035 491.001L428.649 376.273Z" fill="#F0C29F"></path><path id="body" xmlns="http://www.w3.org/2000/svg" d="M712.716 1100.5C714.209 1100.65 714.209 1100.65 714.209 1100.64L714.209 1100.64L714.212 1100.61L714.222 1100.51C714.231 1100.42 714.244 1100.28 714.261 1100.1C714.278 1099.93 714.299 1099.71 714.323 1099.44C714.349 1099.18 714.378 1098.86 714.411 1098.51C714.541 1097.11 714.729 1095.04 714.962 1092.37C715.428 1087.03 716.074 1079.27 716.791 1069.61C718.224 1050.29 719.945 1023.34 721.092 992.848C723.385 931.89 723.392 856.643 714.196 799.771L714.19 799.733L714.182 799.694C675.616 620.907 519.985 564.826 456.772 551.998L430.132 376.049L429.939 374.773H428.649H310.15H308.864L308.667 376.044L281.44 551.97C214.676 563.808 52.2372 618.529 15.0861 799.709L15.0755 799.761L15.0686 799.813C6.80177 861.947 6.80561 937.17 8.8689 996.813C9.90088 1026.64 11.4488 1052.6 12.7388 1071.09C13.3838 1080.34 13.9644 1087.72 14.3838 1092.8C14.5936 1095.34 14.763 1097.29 14.88 1098.62C14.9386 1099.28 14.984 1099.79 15.0148 1100.13L15.0499 1100.51L15.0589 1100.61L15.0612 1100.63L15.0618 1100.64C15.0619 1100.64 15.062 1100.64 16.5555 1100.5L15.062 1100.64L15.1892 1102H16.5555H712.716H714.076L714.209 1100.65L712.716 1100.5Z" fill="#FAD3B6" stroke="black" stroke-width="3"></path><path id="shirt" xmlns="http://www.w3.org/2000/svg" d="M15.5555 791C42.1003 668.839 132.68 605.918 206.569 573C310.347 670.881 474.404 639.322 542.228 580.445C610.199 615.959 688.703 677.903 714.556 791C730.056 913.5 714.556 1100.5 714.556 1200.5H15.5555C15.5555 1100.5 -1.44443 891 15.5555 791Z" fill="#1F1F1F" stroke="black"></path><path id="left-ear" xmlns="http://www.w3.org/2000/svg" d="M261.081 243.455L261.394 242.15L260.133 241.694C243.773 235.777 228.713 234.626 217.717 238.952C212.189 241.127 207.696 244.688 204.644 249.69C201.598 254.682 200.047 261.012 200.225 268.642C200.936 299.219 228.679 319.194 254.395 314.193L255.609 313.957V312.721C255.609 311.729 255.951 298.666 256.812 283.685C257.676 268.661 259.051 251.916 261.081 243.455Z" fill="#FAD3B6" stroke="black" stroke-width="3" stroke-linecap="round"></path><path id="left-ear-shadow" xmlns="http://www.w3.org/2000/svg" d="M259.624 243.105C255.488 260.336 254.11 310.653 254.11 312.721C248.231 313.864 242.236 313.653 236.501 312.271C237.19 300.473 237.17 280.75 234.398 264.327C232.478 252.951 229.239 243.159 224.001 238.68C233.826 236.706 246.192 238.246 259.624 243.105Z" fill="#F0C29F"></path><path id="left-ear-detail" xmlns="http://www.w3.org/2000/svg" d="M211.375 268.608C222.403 257.579 240.974 262.404 247.906 277.568" stroke="black" stroke-width="3" stroke-linecap="round"></path><path id="right-ear" xmlns="http://www.w3.org/2000/svg" d="M474.593 243.455L474.28 242.15L475.541 241.694C491.901 235.777 506.962 234.626 517.957 238.952C523.485 241.127 527.979 244.688 531.03 249.69C534.076 254.682 535.627 261.012 535.45 268.642C534.739 299.219 506.996 319.194 481.279 314.193L480.066 313.957V312.721C480.066 311.729 479.723 298.666 478.862 283.685C477.999 268.661 476.624 251.916 474.593 243.455Z" fill="#FAD3B6" stroke="black" stroke-width="3" stroke-linecap="round"></path><path id="right-ear-shadow" xmlns="http://www.w3.org/2000/svg" d="M476.051 243.105C480.187 260.336 481.565 310.653 481.565 312.721C486.199 313.622 490.905 313.682 495.5 312.99C496.841 302.601 496.923 283.186 500.992 264.446C502.991 255.238 505.953 246.193 510.5 238.463C500.872 236.832 488.953 238.438 476.051 243.105Z" fill="#F0C29F"></path><path id="right-ear-detail" xmlns="http://www.w3.org/2000/svg" d="M524.299 268.608C513.271 257.579 494.7 262.404 487.768 277.568" stroke="black" stroke-width="3" stroke-linecap="round"></path><path id="head" xmlns="http://www.w3.org/2000/svg" d="M366.459 450.022C206.549 450.022 249.973 258.406 254.109 182.586C287.195 30.2582 480.187 108.835 482.944 182.586C485.701 256.338 526.369 450.022 366.459 450.022Z" fill="#FAD3B6" stroke="black" stroke-width="3" stroke-linecap="round"></path><path id="left-eyebrow" xmlns="http://www.w3.org/2000/svg" d="M322.584 194.284C308.899 197.102 304.342 207.151 316.158 206.678L316.187 206.677C328.011 206.204 351.013 205.284 349.928 197.555C348.841 189.82 336.269 191.465 322.584 194.284Z" fill="black" stroke="black" stroke-width="3" stroke-linecap="round" style="transform: translateY(-2%) rotate(-15deg); transform-origin: 329.669px 199.316px 0px;" transform-origin="329.66920471191406px 199.3159637451172px"></path><path id="right-eyebrow" xmlns="http://www.w3.org/2000/svg" d="M417.706 194.693C431.205 198.3 435.172 208.595 423.403 207.439L423.375 207.436C411.598 206.279 388.688 204.028 390.219 196.375C391.752 188.716 404.207 191.087 417.706 194.693Z" fill="black" stroke="black" stroke-width="3" stroke-linecap="round" style="transform: translateY(-2%) rotate(15deg); transform-origin: 410.259px 199.417px 0px;" transform-origin="410.25860595703125px 199.4173583984375px"></path><g style="opacity: 0;"><path id="blink-left" xmlns="http://www.w3.org/2000/svg" fill="#000" d="M342,244.9c-0.1,0-0.3,0.1-0.5,0.1c-0.6,0-1.2-0.4-1.4-1l-0.6-1.9c-1.9,0.7-6.3,2-12.2,2c-3.4,0-7.4-0.5-11.5-1.8    l-0.9,2.3c-0.2,0.6-0.8,0.9-1.4,0.9c-0.2,0-0.4,0-0.5-0.1c-0.8-0.3-1.2-1.2-0.8-1.9l3.5-9.1c0.3-0.8,1.2-1.2,1.9-0.8    c0.8,0.3,1.2,1.2,0.9,1.9l-1.5,4c10.4,3.2,19.3,0.6,21.7-0.3l-0.7-2.1c-0.3-0.8,0.2-1.6,1-1.9s1.6,0.2,1.9,1l2.2,6.8    C343.2,243.8,342.8,244.6,342,244.9z"></path><path id="blink-right" xmlns="http://www.w3.org/2000/svg" fill="#000" d="M420.8,243.8c-0.1,0-0.3,0.1-0.5,0.1c-0.6,0-1.2-0.4-1.4-1l-0.6-1.9c-1.9,0.7-6.3,2-12.2,2c-3.4,0-7.4-0.5-11.5-1.8    l-0.9,2.3c-0.2,0.6-0.8,0.9-1.4,0.9c-0.2,0-0.4,0-0.5-0.1c-0.8-0.3-1.2-1.2-0.8-1.9l3.5-9.1c0.3-0.8,1.2-1.2,1.9-0.8    c0.8,0.3,1.2,1.2,0.9,1.9l-1.5,4c10.4,3.2,19.3,0.6,21.7-0.3l-0.7-2.1c-0.3-0.8,0.2-1.6,1-1.9s1.6,0.2,1.9,1l2.2,6.8    C422,242.7,421.6,243.6,420.8,243.8z"></path></g><g style="opacity: 1;"><path id="left-eye" xmlns="http://www.w3.org/2000/svg" d="M332.5 237.501C332.937 241.772 331.286 247.69 327.86 247.69C324.434 247.69 322 245.45 322 240.501C322 235.552 324.434 229.77 327.86 229.77C331.286 229.77 332.5 232.552 332.5 237.501Z" fill="black" style="transform: translateX(1.10429vw) translateY(-0.09372vh); transform-origin: 327.285px 238.73px 0px;" transform-origin="327.28448486328125px 238.7300033569336px"></path><path id="right-eye" xmlns="http://www.w3.org/2000/svg" d="M414.018 238.73C414.018 243.679 411.241 247.69 407.815 247.69C404.389 247.69 402.5 243.679 402.5 238.73C402.5 233.781 404.389 229.77 407.815 229.77C413.455 229.77 414.018 233.781 414.018 238.73Z" fill="black" style="transform: translateX(1.10429vw) translateY(-0.09372vh); transform-origin: 408.259px 238.73px 0px;" transform-origin="408.2590026855469px 238.7300033569336px"></path></g><path xmlns="http://www.w3.org/2000/svg" d="M365.079 256.34C360.254 283.221 350.604 291.492 376.796 283.911" stroke="black" stroke-width="3" stroke-linecap="round"></path><path xmlns="http://www.w3.org/2000/svg" d="M372.663 320.753C354.053 318.686 359.567 333.16 372.663 331.782C364.622 334.079 350.745 340.191 359.567 346.256C368.39 352.322 377.028 347.405 380.245 344.188" stroke="black" stroke-width="3" stroke-linecap="round"></path><path id="hair" xmlns="http://www.w3.org/2000/svg" d="M248.758 238.066L248.759 238.066L248.76 238.066L248.761 238.067L248.762 238.067L249.335 238.282L249.898 238.03C254.335 236.041 258.056 231.632 261.171 226.126C264.308 220.58 266.948 213.71 269.124 206.491C273.335 192.525 275.874 177.046 276.874 166.827C289.931 162.919 316.405 148.591 327.826 119.267C338.442 128.201 356.373 140.004 377.8 148.149C399.907 156.552 425.87 161.109 451.407 154.452C453.127 164.79 456.579 182.453 461.979 199.128C464.827 207.923 468.232 216.492 472.236 223.582C476.222 230.637 480.898 236.402 486.369 239.359L486.893 239.643L487.468 239.489C492.599 238.121 495.995 237.444 498.089 237.109C499.135 236.941 499.854 236.86 500.3 236.82C500.523 236.8 500.677 236.791 500.77 236.787C500.816 236.784 500.846 236.783 500.862 236.783L500.867 236.783H500.868H500.869H500.871L500.874 236.783L501.815 236.783L502.222 235.926C507.605 224.595 509.443 208.529 509.742 193.785C510.011 180.534 509.039 168.167 508.166 160.895C517.502 163.669 530.592 166.257 542.04 165.683C548.235 165.373 554.098 164.13 558.632 161.359C563.237 158.546 566.402 154.193 567.148 147.923C568.631 135.462 560.473 126.379 550.327 120.203C544.75 116.809 538.446 114.205 532.485 112.314C538.777 111.873 545.206 110.57 550.362 107.874C555.014 105.442 558.74 101.814 560.266 96.5808C561.784 91.3772 561.044 84.8655 557.373 76.8181C549.861 60.3476 532.714 54.0973 514.901 52.7852C499.937 51.6829 484.167 54.0258 472.348 56.9985C477.277 51.8443 481.099 44.8035 479.648 36.9994C477.719 26.6258 466.654 15.93 439.295 7.08663C411.578 -1.87218 391.142 3.34473 376.9 13.6935C363.851 23.1749 356.134 36.8649 352.702 47.5135C344.842 38.72 332.391 27.6871 318.423 20.8488C303.33 13.46 286.126 10.8303 271.145 21.7776C263.781 27.1596 259.584 32.9591 257.798 38.8803C256.011 44.8029 256.687 50.6756 258.756 56.1078C261.023 62.0583 264.984 67.5493 269.354 72.159C258.738 67.2043 245.883 63.1308 233.38 62.8453C224.365 62.6394 215.458 64.4023 207.719 69.3025C199.965 74.212 193.513 82.1888 189.283 94.1734C185.086 106.067 184.222 115.833 185.723 123.803C187.228 131.793 191.092 137.876 196.16 142.403C205.529 150.771 218.937 153.77 229.148 154.052C223.692 168.198 222.752 184.196 223.768 198.582C224.834 213.686 228.066 227.143 230.626 235.055L230.962 236.094H232.053C237.823 236.094 242.041 236.603 244.795 237.103C246.172 237.354 247.183 237.602 247.84 237.784C248.168 237.875 248.408 237.949 248.56 237.999C248.637 238.024 248.691 238.042 248.724 238.054L248.757 238.066L248.758 238.066Z" fill="#7399F8" stroke="black" stroke-width="3" stroke-linecap="round"></path><path id="hair-shadow" xmlns="http://www.w3.org/2000/svg" d="M190.698 94.6726C207.24 47.8025 257.786 65.4937 280.991 80.198C266.057 69.859 243.357 43.9424 272.031 22.9887C284.694 13.7346 299.079 14.5367 312.5 19.8614C329.468 26.5931 344.897 40.5532 353.364 50.5594C356.672 38.2549 366.41 20.3275 384.5 10.7031C397.824 3.61431 415.679 1.02983 438.833 8.51392C493.423 26.1592 479.96 50.3295 466.404 60.2089C472.973 58.1877 481.618 56.2047 491 55.0447C515.745 51.9849 545.613 54.6503 556.009 77.4406C561.136 88.6822 560.186 96.3792 556.009 101.534C546.402 82.2594 508.667 62.51 491 55.0447C481.618 56.2047 472.973 58.1877 466.404 60.2089C486.808 40.2199 433 4.5 384.5 10.7031C366.41 20.3275 356.672 38.2549 353.364 50.5594C344.897 40.5532 329.468 26.5931 312.5 19.8614C272.9 24.1505 283.667 71.5227 294 94.6726C263.5 97.1151 202.1 110.384 200.5 143.921C188.75 135.721 181.519 120.679 190.698 94.6726Z" fill="#92B1FE"></path><g style="transform: translate3d(35%, 22%, 0px);"><path d="M90.9108 89.4997C89.4905 91.3459 88.7075 93.4335 88.1459 95.4682C87.8652 96.4851 87.6331 97.5161 87.4106 98.5049L87.4071 98.5204C87.1832 99.5157 86.969 100.468 86.7155 101.393C86.2059 103.251 85.5675 104.876 84.5168 106.228C83.4865 107.554 81.9922 108.702 79.6253 109.491C77.376 110.241 75.7578 109.987 74.2962 109.253C72.7795 108.492 71.3999 107.208 69.6699 105.598C69.5918 105.525 69.513 105.452 69.4335 105.378C65.8103 102.009 61.1962 97.9141 52.5996 97.9141C50.4713 97.9141 48.7396 98.2269 47.3873 98.8974C45.9895 99.5906 45.0664 100.634 44.5573 101.915C44.0676 103.147 43.9956 104.508 44.0993 105.833C44.2036 107.165 44.4961 108.574 44.829 109.954C45 110.662 45.1794 111.358 45.3555 112.041C45.8914 114.12 46.3959 116.078 46.5337 117.88C46.7112 120.202 46.2331 121.718 44.7848 122.655C44.0247 123.147 42.89 123.46 41.301 123.603C39.7283 123.745 37.8782 123.708 35.7835 123.626C35.3023 123.607 34.8091 123.586 34.3056 123.564C30.5023 123.4 26.1129 123.21 21.8696 123.869C17.0139 124.624 12.2001 126.507 8.45973 130.885C4.73877 135.24 2.24054 141.878 1.60334 151.818C0.962297 161.819 3.34537 167.899 7.91444 171.353C12.352 174.707 18.4765 175.258 24.4828 175.227C26.5102 175.216 28.5969 175.136 30.6432 175.058C31.6471 175.019 32.6412 174.981 33.6139 174.952C36.6089 174.861 39.4522 174.851 42.031 175.132C47.1912 175.694 50.9181 177.369 52.7247 181.514C54.6031 185.823 53.8058 189.701 51.6525 193.83C50.5646 195.916 49.151 198.023 47.5893 200.25C47.2305 200.762 46.8633 201.281 46.4913 201.806C45.2617 203.543 43.9797 205.355 42.7754 207.228C39.6269 212.126 36.8568 217.67 36.5003 224.287C36.1423 230.931 38.2267 238.442 44.3683 247.271C56.7842 265.118 78.6695 270.94 98.7508 268.906C108.813 267.888 118.516 264.894 126.495 260.376C134.462 255.864 140.806 249.775 143.975 242.514C149.919 228.891 156.347 219.76 163.506 213.782C170.64 207.825 178.597 204.917 187.764 203.905C194.985 203.108 200.042 198.647 203.207 192.436C206.349 186.268 207.683 178.297 207.562 170.112C207.441 161.91 205.858 153.369 203.05 145.994C200.253 138.649 196.178 132.298 190.954 128.681C185.664 125.019 180.083 124.615 174.709 125.407C171.096 125.939 167.409 127.053 163.96 128.095C162.403 128.565 160.895 129.021 159.464 129.402C154.676 130.677 150.645 131.17 147.278 129.608C143.972 128.075 140.871 124.338 138.544 116.011C133.708 98.7007 124.639 88.6144 115.265 84.5642C105.905 80.52 96.2494 82.5597 90.9108 89.4997Z" fill="url(#paint0_linear)" stroke="black" stroke-width="3"></path><g style="mix-blend-mode: overlay;" opacity="0.3"><path d="M92.0997 90.4143C87.0996 96.9141 90.5996 107.414 80.0996 110.914C69.5996 114.414 68.5996 99.4141 52.5996 99.4141C36.5996 99.4141 54.0997 118.414 45.5997 123.914C37.0997 129.414 5.60027 112.914 3.10027 151.914C1.8494 171.428 12.4899 173.792 24.5 173.727C19.3333 162.818 12.1 140.2 24.5 137C40 133 60 143.414 64.5 129.914C69 116.414 89 123.5 96 113.5C103 103.5 109.363 87.9141 129.682 99.4141C117.9 81.2629 99.8462 80.3441 92.0997 90.4143Z" fill="white"></path></g><path d="M95 165.143C95 150.146 116.745 150.146 118 166" stroke="black" stroke-width="3" stroke-linecap="round"></path><path d="M120 180.857C120 195.854 93.5273 195.854 92 180" stroke="black" stroke-width="3" stroke-linecap="round"></path><path d="M103.079 96.3398C98.2538 123.221 88.6041 131.492 114.796 123.911" stroke="black" stroke-width="3" stroke-linecap="round"></path><path d="M112 172.5C112 177.747 108.865 182 104.998 182C101.132 182 99 177.747 99 172.5C99 167.253 101.132 163 104.998 163C111.364 163 112 167.253 112 172.5Z" fill="black"></path><defs><linearGradient id="paint0_linear" x1="104.535" y1="84" x2="151.5" y2="268" gradientUnits="userSpaceOnUse"><stop stop-color="rgba(224, 178, 242, 1)"></stop><stop offset="1" stop-color="rgba(243, 211, 255, 1)"></stop></linearGradient></defs></g></g><defs><clipPath id="clip0"><rect width="730" height="1200" fill="white"></rect></clipPath></defs></svg>