<svg width="106" height="26" viewBox="0 0 106 26" fill="none" xmlns="http://www.w3.org/2000/svg">
<path fill-rule="evenodd" clip-rule="evenodd" d="M9.77892 14.2271C9.77892 15.8631 8.6586 16.9624 6.99109 16.9624C5.29318 16.9624 4.15253 15.8631 4.15253 14.2271V6.25391L0.5 6.91262V14.7464C0.5 17.9339 2.62221 20.0758 5.78072 20.0758C7.44064 20.0758 8.87846 19.4756 9.8636 18.3789L9.90918 19.8502L13.4317 19.1911V6.25391L9.77892 6.91262V14.2271Z" fill="black"/>
<path fill-rule="evenodd" clip-rule="evenodd" d="M23.1202 9.11802C25.2853 9.11802 26.7401 10.6845 26.7401 13.016C26.7401 15.377 25.2853 16.9632 23.1202 16.9632C20.9549 16.9632 19.5001 15.3869 19.5001 13.0407C19.5001 10.6943 20.9549 9.11802 23.1202 9.11802ZM23.9019 6.0293C22.0005 6.0293 20.4643 6.73098 19.4376 8.0631L19.3693 6.25464L15.8477 6.91402V25.2932L19.5002 24.6343V18.124C20.5343 19.42 22.0132 20.0765 23.9019 20.0765C27.7361 20.0765 30.519 17.0966 30.519 12.9911C30.519 8.95724 27.7361 6.0293 23.9019 6.0293Z" fill="black"/>
<path fill-rule="evenodd" clip-rule="evenodd" d="M57.7814 16.9626C56.7324 16.9626 56.0272 16.2013 56.0272 15.0685V9.24108H59.196V6.2763H56.0272V2.3457L52.3747 3.00442V6.2763H51.6016V9.24108H52.3747V15.7612C52.3747 18.3421 54.1016 20.076 56.672 20.076C57.9521 20.076 59.1614 19.8592 60.1693 19.4493L60.2381 19.4213V16.4622L60.0833 16.526C59.3687 16.8199 58.6157 16.9626 57.7814 16.9626Z" fill="black"/>
<path fill-rule="evenodd" clip-rule="evenodd" d="M71.5802 11.8667H65.5074C65.8102 9.92166 66.8534 8.89468 68.5305 8.89468C70.2487 8.89468 71.3014 9.92188 71.5802 11.8667ZM68.5313 6.0293C64.4076 6.0293 61.6367 8.88666 61.6367 13.1395C61.6367 17.2886 64.4683 20.0765 68.6826 20.0765C71.2255 20.0765 73.4192 18.9949 74.7009 17.1087L74.7708 17.0056L71.9307 15.5994L71.8742 15.6674C71.0296 16.6768 69.9086 17.2104 68.6321 17.2104C66.8502 17.2104 65.7998 16.2522 65.5078 14.3622H75.3115L75.3238 14.2662C75.3544 14.0268 75.4257 13.4085 75.4257 12.8427C75.4257 8.76741 72.6551 6.0293 68.5313 6.0293Z" fill="black"/>
<path fill-rule="evenodd" clip-rule="evenodd" d="M87.9593 15.8101C87.2163 16.5859 86.2368 16.9631 84.9647 16.9631C82.7042 16.9631 81.2436 15.4232 81.2436 13.0404C81.2436 10.6942 82.7288 9.11792 84.9393 9.11792C85.9718 9.11792 86.7981 9.40815 87.5392 10.0316L87.625 10.1039L89.7137 7.65603L89.6223 7.5861C88.2913 6.56767 86.6544 6.0293 84.8888 6.0293C80.4484 6.0293 77.4648 8.84676 77.4648 13.0404C77.4648 17.2487 80.4178 20.0765 84.813 20.0765C86.9878 20.0765 88.8025 19.4237 90.0611 18.1891L90.1342 18.1172L88.0446 15.7211L87.9593 15.8101Z" fill="black"/>
<path fill-rule="evenodd" clip-rule="evenodd" d="M99.9674 6.02917C98.2358 6.02917 96.7392 6.62059 95.717 7.70172V0.292969L92.0645 0.951685V19.851L95.717 19.1921V11.8778C95.717 10.2011 96.9202 9.1178 98.7823 9.1178C100.644 9.1178 101.848 10.2011 101.848 11.8778V19.851L105.5 19.1921V11.3335C105.5 8.16096 103.277 6.02917 99.9674 6.02917Z" fill="black"/>
<path fill-rule="evenodd" clip-rule="evenodd" d="M38.1276 21.0053L32.5859 16.4747V12.4043L38.1276 16.6858V21.0053Z" fill="black"/>
<path fill-rule="evenodd" clip-rule="evenodd" d="M37.9849 16.5703H41.1082L36.5496 12.8436H33.4266L37.9849 16.5703ZM41.9489 17.0079H37.8233L32.5859 12.4043H36.7115L41.9489 17.0079Z" fill="black"/>
<path fill-rule="evenodd" clip-rule="evenodd" d="M41.9479 17.0087L36.4062 12.7271V8.65625L41.9479 12.938V17.0087Z" fill="black"/>
<path fill-rule="evenodd" clip-rule="evenodd" d="M41.8052 12.8222H44.9282L40.3699 9.09551H37.2469L41.8052 12.8222ZM45.769 13.2598H41.6436L36.4062 8.65625H40.5316L45.769 13.2598Z" fill="black"/>
<path fill-rule="evenodd" clip-rule="evenodd" d="M45.7702 13.2587L40.2285 8.97714V4.90625L45.7702 9.18824V13.2587Z" fill="black"/>
<path fill-rule="evenodd" clip-rule="evenodd" d="M45.6276 9.07246H48.7505L44.192 5.34551H41.069L45.6276 9.07246ZM49.9849 9.51003H45.4659L40.2285 4.90625H44.3538L49.9849 9.51003Z" fill="black"/>
</svg>
